<svg width="40" height="40" viewBox="0 0 40 40" fill="none" xmlns="http://www.w3.org/2000/svg">
<rect width="40" height="40" rx="20" fill="black"/>
<g opacity="0.56">
<path fill-rule="evenodd" clip-rule="evenodd" d="M31.4791 19.9437L27.9466 16.4112L29.7119 12.88L35.4515 18.6196C36.1828 19.3509 36.1828 20.5365 35.4515 21.2679L28.3872 28.3322C27.6559 29.0635 26.4702 29.0635 25.7389 28.3322C25.0076 27.6009 25.0076 26.4152 25.7389 25.6839L31.4791 19.9437Z" fill="#CDD4E2"/>
</g>
<path fill-rule="evenodd" clip-rule="evenodd" d="M25.7402 11.5483C26.4715 10.817 27.6575 10.8173 28.3888 11.5486L29.7133 12.8731L14.2611 28.3253C13.5298 29.0566 12.3438 29.0563 11.6125 28.325L10.2881 27.0005L25.7402 11.5483ZM19.1177 16.4049L16.4688 19.0538L12.9363 15.5214L8.5209 19.9368L12.0534 23.4693L10.2881 27.0005L4.54848 21.2609C3.81717 20.5296 3.81717 19.344 4.54848 18.6127L11.6125 11.5486C12.3438 10.8173 13.5298 10.817 14.2611 11.5483L19.1177 16.4049Z" fill="#CDD4E2"/>
</svg>
