<svg width="40" height="40" viewBox="0 0 40 40" fill="none" xmlns="http://www.w3.org/2000/svg">
<g clip-path="url(#clip0_143_2)">
<path d="M40 34.4444C40 37.5133 37.5133 40 34.4444 40H5.55556C2.48667 40 0 37.5133 0 34.4444V5.55556C0 2.48667 2.48667 0 5.55556 0H34.4444C37.5133 0 40 2.48667 40 5.55556V34.4444Z" fill="black"/>
<path d="M10.4382 27.2139H6V13.027H10.4371C12.467 13.027 14.1122 14.6722 14.1122 16.7021V23.5388C14.1133 25.5688 12.4681 27.2139 10.4382 27.2139ZM10.3269 24.5711C11.0435 24.5711 11.6239 23.9906 11.6239 23.274V16.9691C11.6239 16.2524 11.0435 15.672 10.3269 15.672H8.70226V24.5711H10.3269Z" fill="#CDD4E2"/>
<path d="M22.7658 15.4861V13H17.3115C16.4166 13 15.6902 13.7264 15.6902 14.6214V25.5752C15.6902 26.4702 16.4166 27.1966 17.3115 27.1966H22.7658V24.7105H18.1752V21.337H21.0017V18.8509H18.1752V15.4861H22.7658Z" fill="#CDD4E2"/>
<path d="M35.0222 13.0032L31.8444 25.6174C31.2931 27.8008 28.2017 27.8008 27.6505 25.6174L24.4618 13.0032H27.2505L29.7474 22.8827L32.2335 13.0032H35.0222Z" fill="#CDD4E2"/>
</g>
<defs>
<clipPath id="clip0_143_2">
<rect width="40" height="40" rx="20" fill="white"/>
</clipPath>
</defs>
</svg>
